<?xml version="1.0" encoding="UTF-8"?>
<!DOCTYPE svg PUBLIC "-//W3C//DTD SVG 1.1//EN" "http://www.w3.org/Graphics/SVG/1.1/DTD/svg11.dtd">
<!-- Creator: CorelDRAW X7 -->
<svg xmlns="http://www.w3.org/2000/svg" xml:space="preserve" width="10in" height="8in" version="1.1" style="shape-rendering:geometricPrecision; text-rendering:geometricPrecision; image-rendering:optimizeQuality; fill-rule:evenodd; clip-rule:evenodd"
viewBox="0 0 10000 8000"
 xmlns:xlink="http://www.w3.org/1999/xlink">
 <defs>
  <style type="text/css">
   <![CDATA[
    .fil1 {fill:#FEFEFE}
    .fil0 {fill:#FECB29}
    .fil2 {fill:#155A9E}
    .fil3 {fill:#155A9E;fill-rule:nonzero}
   ]]>
  </style>
     <mask id="id0">
  <linearGradient id="id1" gradientUnits="userSpaceOnUse" x1="4966.26" y1="1275.52" x2="4980.78" y2="2697.91">
   <stop offset="0" style="stop-opacity:0.380392; stop-color:white"/>
   <stop offset="1" style="stop-opacity:0; stop-color:white"/>
  </linearGradient>
      <rect style="fill:url(#id1)" x="3989" y="511" width="1968" height="2951"/>
     </mask>
     <mask id="id2">
  <linearGradient id="id3" gradientUnits="userSpaceOnUse" x1="2506.59" y1="2715.78" x2="3080.87" y2="3311.52">
   <stop offset="0" style="stop-opacity:0.380392; stop-color:white"/>
   <stop offset="1" style="stop-opacity:0; stop-color:white"/>
  </linearGradient>
      <rect style="fill:url(#id3)" x="1872" y="2100" width="1843" height="1828"/>
     </mask>
     <mask id="id4">
  <linearGradient id="id5" gradientUnits="userSpaceOnUse" x1="7409.54" y1="2766.65" x2="6979.56" y2="3312.64">
   <stop offset="0" style="stop-opacity:0.4; stop-color:white"/>
   <stop offset="1" style="stop-opacity:0; stop-color:white"/>
  </linearGradient>
      <rect style="fill:url(#id5)" x="6245" y="2080" width="1899" height="1919"/>
     </mask>
 </defs>
 <g id="Layer_x0020_1">
  <metadata id="CorelCorpID_0Corel-Layer"/>
  <g id="_801696032">
   <g>
    <path class="fil0" d="M4400 3701c0,0 -436,-592 592,-1911 0,0 904,1340 499,1931 0,0 1630,-207 -488,-3447 0,0 -2119,2534 -603,3427z"/>
    <path class="fil1" style="mask:url(#id0)" d="M4166 3310c0,-29 1,-56 2,-82 35,-543 388,-1108 713,-1525l119 -153 109 161c64,95 124,197 180,297 121,214 231,441 314,672 83,231 157,518 126,779 88,-75 148,-174 183,-289 223,-721 -495,-1983 -921,-2655 -70,92 -138,186 -202,279 -214,311 -413,646 -564,993 -165,381 -319,892 -175,1302 29,82 68,155 116,221z"/>
    <path class="fil2" d="M3341 4303c0,0 -685,-270 -935,-1433 0,0 1080,166 1496,1007 0,0 342,-1069 -2181,-1963 0,0 280,2327 1620,2389z"/>
    <path class="fil1" style="mask:url(#id2)" d="M3712 3399c-18,-37 -37,-74 -59,-108 -338,-555 -1150,-949 -1778,-1188 18,95 39,189 61,280 79,330 191,668 350,969 113,214 256,419 437,572 -222,-301 -360,-665 -438,-1028l-37 -176 177 28c64,9 130,25 192,42 148,39 295,92 435,156 247,112 474,262 660,453z"/>
    <path class="fil2" d="M6659 4303c0,0 685,-270 935,-1433 0,0 -1080,166 -1496,1007 0,0 -342,-1069 2181,-1963 0,0 -280,2327 -1620,2389z"/>
    <path class="fil1" style="mask:url(#id4)" d="M6248 3460c193,-215 438,-381 705,-503 139,-63 285,-116 434,-155 61,-16 127,-33 190,-42l159 -25 -33 158c-85,394 -240,788 -497,1103 223,-161 392,-399 519,-638 159,-302 272,-641 351,-972 24,-98 46,-200 65,-302 -634,239 -1461,636 -1805,1200 -34,55 -64,114 -88,176z"/>
   </g>
   <path class="fil3" d="M2086 4461l407 0 0 884c0,141 5,231 15,273 17,66 58,120 122,161 65,40 154,60 266,60 113,0 200,-19 258,-57 58,-38 92,-85 104,-141 11,-56 18,-148 18,-277l0 -903 406 0 0 858c0,196 -10,334 -32,415 -22,81 -63,149 -121,205 -59,56 -137,100 -236,133 -98,33 -226,50 -385,50 -191,0 -336,-18 -435,-54 -99,-36 -177,-83 -234,-141 -58,-57 -95,-117 -113,-181 -27,-93 -40,-231 -40,-414l0 -871z"/>
   <path id="1" class="fil3" d="M4006 5564l395 -32c24,107 72,186 144,236 73,51 170,76 293,76 130,0 229,-22 295,-67 66,-45 99,-97 99,-157 0,-39 -14,-72 -42,-99 -27,-27 -76,-51 -145,-70 -48,-14 -155,-38 -323,-72 -217,-44 -369,-98 -456,-162 -123,-90 -185,-200 -185,-329 0,-83 29,-161 87,-234 58,-72 141,-127 250,-165 109,-38 240,-57 394,-57 251,0 441,45 567,136 128,90 194,211 201,362l-407 12c-18,-84 -54,-145 -111,-182 -57,-36 -142,-55 -255,-55 -117,0 -208,20 -274,59 -43,26 -64,59 -64,102 0,39 20,72 60,99 51,35 175,72 372,110 197,37 342,77 436,117 94,41 168,96 222,166 53,70 80,157 80,260 0,93 -32,181 -96,262 -64,82 -155,143 -272,182 -116,40 -262,60 -437,60 -254,0 -449,-48 -585,-143 -136,-95 -217,-233 -243,-415z"/>
   <polygon id="2" class="fil3" points="5978,6092 5978,4461 6587,4461 6948,5574 7303,4461 7914,4461 7914,6092 7538,6092 7537,4808 7141,6092 6750,6092 6355,4808 6354,6092 "/>
   <path class="fil3" d="M312 6579l105 0 0 270c0,43 1,71 4,83 4,21 14,37 31,49 17,13 40,19 69,19 29,0 51,-6 66,-17 15,-12 24,-26 27,-43 3,-18 5,-46 5,-85l0 -276 105 0 0 262c0,60 -3,102 -8,127 -6,25 -16,45 -32,63 -15,17 -35,30 -60,40 -26,10 -59,15 -100,15 -49,0 -87,-5 -112,-16 -26,-11 -46,-25 -61,-43 -15,-18 -24,-36 -29,-55 -7,-29 -10,-71 -10,-127l0 -266z"/>
   <path id="1" class="fil3" d="M808 6916l102 -10c6,33 18,57 37,72 19,16 44,23 76,23 33,0 59,-6 76,-20 17,-14 25,-30 25,-48 0,-12 -3,-22 -10,-30 -8,-8 -20,-16 -38,-22 -12,-4 -40,-11 -83,-21 -56,-14 -96,-30 -118,-50 -32,-27 -48,-61 -48,-101 0,-25 8,-49 22,-71 15,-22 37,-39 65,-51 28,-11 62,-17 102,-17 65,0 114,14 147,42 32,27 50,64 51,110l-105 4c-4,-26 -14,-44 -28,-55 -15,-12 -37,-17 -66,-17 -31,0 -54,6 -71,18 -11,7 -17,18 -17,31 0,12 5,22 16,30 13,11 45,22 96,34 51,11 88,23 113,35 24,13 43,30 57,51 14,21 20,48 20,79 0,29 -8,56 -24,81 -17,24 -40,43 -70,55 -31,12 -68,18 -113,18 -66,0 -116,-14 -152,-43 -35,-29 -56,-72 -62,-127z"/>
   <polygon id="2" class="fil3" points="1319,7077 1319,6579 1703,6579 1703,6663 1424,6663 1424,6774 1683,6774 1683,6858 1424,6858 1424,6993 1713,6993 1713,7077 "/>
   <path id="3" class="fil3" d="M1802 6579l191 0c44,0 76,3 99,10 30,8 56,24 78,46 22,21 38,48 50,80 11,32 17,71 17,118 0,41 -6,76 -16,106 -13,36 -32,66 -56,88 -18,17 -43,30 -73,40 -23,7 -54,10 -93,10l-197 0 0 -498zm105 84l0 330 78 0c29,0 50,-2 63,-5 17,-4 31,-11 43,-20 11,-10 20,-26 27,-48 7,-23 10,-53 10,-92 0,-38 -3,-68 -10,-88 -7,-21 -17,-37 -30,-48 -12,-12 -28,-20 -48,-24 -15,-3 -43,-5 -86,-5l-47 0z"/>
   <path id="4" class="fil3" d="M2500 6916l102 -10c6,33 18,57 37,72 19,16 44,23 76,23 33,0 59,-6 76,-20 17,-14 26,-30 26,-48 0,-12 -4,-22 -11,-30 -7,-8 -20,-16 -38,-22 -12,-4 -40,-11 -83,-21 -56,-14 -96,-30 -118,-50 -32,-27 -48,-61 -48,-101 0,-25 8,-49 23,-71 15,-22 36,-39 64,-51 28,-11 62,-17 102,-17 65,0 114,14 147,42 33,27 50,64 51,110l-105 4c-4,-26 -14,-44 -28,-55 -15,-12 -37,-17 -66,-17 -30,0 -54,6 -71,18 -11,7 -17,18 -17,31 0,12 6,22 16,30 13,11 45,22 96,34 51,11 88,23 113,35 24,13 43,30 57,51 14,21 21,48 21,79 0,29 -9,56 -25,81 -17,24 -40,43 -70,55 -30,12 -68,18 -113,18 -66,0 -116,-14 -151,-43 -36,-29 -56,-72 -63,-127z"/>
   <polygon id="5" class="fil3" points="3082,7077 2960,6579 3068,6579 3145,6921 3240,6579 3365,6579 3456,6927 3535,6579 3640,6579 3515,7077 3403,7077 3300,6705 3197,7077 "/>
   <polygon id="6" class="fil3" points="3695,7077 3695,6579 4079,6579 4079,6663 3800,6663 3800,6774 4060,6774 4060,6858 3800,6858 3800,6993 4090,6993 4090,7077 "/>
   <path id="7" class="fil3" d="M4179 6579l191 0c43,0 76,3 98,10 31,8 57,24 79,46 21,21 38,48 49,80 11,32 17,71 17,118 0,41 -5,76 -16,106 -13,36 -31,66 -55,88 -19,17 -43,30 -74,40 -23,7 -54,10 -92,10l-197 0 0 -498zm105 84l0 330 78 0c29,0 50,-2 63,-5 17,-4 31,-11 42,-20 11,-10 20,-26 27,-48 7,-23 11,-53 11,-92 0,-38 -4,-68 -11,-88 -7,-21 -17,-37 -29,-48 -13,-12 -29,-20 -49,-24 -14,-3 -43,-5 -85,-5l-47 0z"/>
   <polygon id="8" class="fil3" points="4702,7077 4702,6579 5087,6579 5087,6663 4807,6663 4807,6774 5067,6774 5067,6858 4807,6858 4807,6993 5097,6993 5097,7077 "/>
   <polygon id="9" class="fil3" points="5186,7077 5186,6579 5288,6579 5501,6913 5501,6579 5598,6579 5598,7077 5493,7077 5283,6750 5283,7077 "/>
   <polygon id="10" class="fil3" points="5909,7077 5909,6579 6067,6579 6160,6919 6252,6579 6410,6579 6410,7077 6313,7077 6312,6685 6210,7077 6109,7077 6007,6685 6007,7077 "/>
   <path id="11" class="fil3" d="M6982 7077l-113 0 -45 -113 -208 0 -43 113 -111 0 201 -498 111 0 208 498zm-192 -197l-72 -185 -70 185 142 0z"/>
   <path id="12" class="fil3" d="M7370 6894l102 30c-16,54 -42,95 -78,122 -36,26 -82,40 -138,40 -69,0 -125,-23 -170,-68 -44,-45 -66,-107 -66,-186 0,-83 22,-147 66,-193 45,-46 104,-69 176,-69 64,0 116,18 155,54 24,22 42,52 53,92l-103 24c-6,-26 -19,-46 -39,-61 -19,-15 -43,-23 -71,-23 -38,0 -70,14 -93,40 -25,27 -36,69 -36,129 0,63 11,108 35,134 24,27 54,40 92,40 28,0 52,-8 72,-25 20,-17 35,-44 43,-80z"/>
   <polygon id="13" class="fil3" points="7562,7077 7562,6579 7667,6579 7667,6775 7872,6775 7872,6579 7977,6579 7977,7077 7872,7077 7872,6860 7667,6860 7667,7077 "/>
   <polygon id="14" class="fil3" points="8082,7077 8082,6579 8187,6579 8187,7077 "/>
   <polygon id="15" class="fil3" points="8287,7077 8287,6579 8389,6579 8602,6913 8602,6579 8699,6579 8699,7077 8594,7077 8384,6750 8384,7077 "/>
   <polygon id="16" class="fil3" points="8811,7077 8811,6579 9195,6579 9195,6663 8916,6663 8916,6774 9175,6774 9175,6858 8916,6858 8916,6993 9205,6993 9205,7077 "/>
   <path id="17" class="fil3" d="M9267 6916l102 -10c6,33 18,57 37,72 19,16 44,23 76,23 33,0 59,-6 76,-20 17,-14 25,-30 25,-48 0,-12 -3,-22 -10,-30 -8,-8 -20,-16 -38,-22 -12,-4 -40,-11 -83,-21 -56,-14 -96,-30 -118,-50 -32,-27 -48,-61 -48,-101 0,-25 8,-49 22,-71 15,-22 37,-39 65,-51 28,-11 62,-17 102,-17 65,0 114,14 147,42 32,27 50,64 51,110l-105 4c-4,-26 -14,-44 -29,-55 -14,-12 -36,-17 -65,-17 -31,0 -54,6 -71,18 -11,7 -17,18 -17,31 0,12 5,22 16,30 13,11 45,22 96,34 51,11 88,23 113,35 24,13 43,30 57,51 14,21 20,48 20,79 0,29 -8,56 -24,81 -17,24 -40,43 -70,55 -31,12 -68,18 -113,18 -66,0 -116,-14 -152,-43 -35,-29 -56,-72 -62,-127z"/>
  </g>
 </g>
</svg>
